<?xml version="1.0" encoding="UTF-8"?>
<!DOCTYPE svg PUBLIC "-//W3C//DTD SVG 1.1//EN" "http://www.w3.org/Graphics/SVG/1.1/DTD/svg11.dtd">
<svg xmlns="http://www.w3.org/2000/svg" version="1.1" width="512px" height="512px" style="shape-rendering:geometricPrecision; text-rendering:geometricPrecision; image-rendering:optimizeQuality; fill-rule:evenodd; clip-rule:evenodd" xmlns:xlink="http://www.w3.org/1999/xlink">
<g><path style="opacity:0.998" fill="#dc524a" d="M 232.5,-0.5 C 247.167,-0.5 261.833,-0.5 276.5,-0.5C 299.525,1.83944 321.859,7.17278 343.5,15.5C 342.503,35.6598 342.17,55.9931 342.5,76.5C 282.167,76.5 221.833,76.5 161.5,76.5C 156.949,133.49 152.783,190.49 149,247.5C 157.299,252.981 165.965,257.647 175,261.5C 193.003,257.75 211.169,255.417 229.5,254.5C 246.051,254.316 262.051,257.15 277.5,263C 295.567,271.07 306.067,284.903 309,304.5C 310.517,319.211 308.851,333.545 304,347.5C 295.392,364.9 281.559,375.734 262.5,380C 220.361,387.588 180.361,381.421 142.5,361.5C 142.44,360.957 142.107,360.624 141.5,360.5C 140.173,377.662 140.173,394.662 141.5,411.5C 141.831,436.006 141.498,460.339 140.5,484.5C 57.5896,440.209 10.5896,371.209 -0.5,277.5C -0.5,262.5 -0.5,247.5 -0.5,232.5C 10.3875,142.857 54.7208,75.3573 132.5,30C 163.971,13.3053 197.304,3.1386 232.5,-0.5 Z"/></g>
<g><path style="opacity:0.998" fill="#25a162" d="M 343.5,15.5 C 401.787,36.6161 446.621,73.9495 478,127.5C 496.598,160.583 507.765,195.916 511.5,233.5C 511.5,248.5 511.5,263.5 511.5,278.5C 500.612,368.144 456.279,435.644 378.5,481C 347.03,497.695 313.697,507.861 278.5,511.5C 263.5,511.5 248.5,511.5 233.5,511.5C 200.84,508.251 169.84,499.251 140.5,484.5C 141.498,460.339 141.831,436.006 141.5,411.5C 155.504,419.335 170.504,424.502 186.5,427C 219.36,432.252 252.026,431.252 284.5,424C 334.184,409.823 361.684,376.99 367,325.5C 371.272,288.299 359.772,257.132 332.5,232C 308.145,214.947 280.979,206.78 251,207.5C 235.041,208.058 219.207,209.724 203.5,212.5C 205.833,185.167 208.167,157.833 210.5,130.5C 211.404,129.791 211.737,128.791 211.5,127.5C 255.337,127.832 299.003,127.499 342.5,126.5C 342.5,109.833 342.5,93.1667 342.5,76.5C 342.17,55.9931 342.503,35.6598 343.5,15.5 Z"/></g>
<g><path style="opacity:1" fill="#fefefd" d="M 342.5,76.5 C 342.5,93.1667 342.5,109.833 342.5,126.5C 298.5,126.5 254.5,126.5 210.5,126.5C 210.5,127.833 210.5,129.167 210.5,130.5C 208.167,157.833 205.833,185.167 203.5,212.5C 219.207,209.724 235.041,208.058 251,207.5C 280.979,206.78 308.145,214.947 332.5,232C 359.772,257.132 371.272,288.299 367,325.5C 361.684,376.99 334.184,409.823 284.5,424C 252.026,431.252 219.36,432.252 186.5,427C 170.504,424.502 155.504,419.335 141.5,411.5C 141.17,394.658 141.503,377.992 142.5,361.5C 180.361,381.421 220.361,387.588 262.5,380C 281.559,375.734 295.392,364.9 304,347.5C 308.851,333.545 310.517,319.211 309,304.5C 306.067,284.903 295.567,271.07 277.5,263C 262.051,257.15 246.051,254.316 229.5,254.5C 211.169,255.417 193.003,257.75 175,261.5C 165.965,257.647 157.299,252.981 149,247.5C 152.783,190.49 156.949,133.49 161.5,76.5C 221.833,76.5 282.167,76.5 342.5,76.5 Z"/></g>
<g><path style="opacity:1" fill="#6ec096" d="M 342.5,126.5 C 299.003,127.499 255.337,127.832 211.5,127.5C 211.737,128.791 211.404,129.791 210.5,130.5C 210.5,129.167 210.5,127.833 210.5,126.5C 254.5,126.5 298.5,126.5 342.5,126.5 Z"/></g>
<g><path style="opacity:0.999" fill="#e47f7a" d="M 142.5,361.5 C 141.503,377.992 141.17,394.658 141.5,411.5C 140.173,394.662 140.173,377.662 141.5,360.5C 142.107,360.624 142.44,360.957 142.5,361.5 Z"/></g>
</svg>
